# xmcd
#
# Track frame offsets:
#	150
#	18407
#	29487
#	44850
#	58580
#	70830
#	91945
#	107290
#	125082
#	141980
#	157100
#	170025
#
# Disc length: 2450 seconds
#
# Revision: 3
# Processed by: cddbd v1.5.1PL0 Copyright (c) Steve Scherf et al.
# Submitted via: EasyCDDAExtractor 7.0.5.1
#
DISCID=ae09900c
DTITLE=Conway Twitty - The Very Best of Conway Twitty
DYEAR=1989
DGENRE=Country
TTITLE0=The Clown
TTITLE1=Hello Darlin'
TTITLE2=(Lost Her Love) On Our Last Date
TTITLE3=You've Never Been This Far Before
TTITLE4=Linda On My Mind
TTITLE5=Red Neckin' Love Makin' Night
TTITLE6=Play Guitar, Play
TTITLE7=Somebody's Needin' Somebody
TTITLE8=Don't Take It Away
TTITLE9=Love To Lay You Down
TTITLE10=Tight Fittin' Jeans
TTITLE11=The Games That Daddies Play
EXTD=
EXTT0=
EXTT1=
EXTT2=
EXTT3=
EXTT4=
EXTT5=
EXTT6=
EXTT7=
EXTT8=
EXTT9=
EXTT10=
EXTT11=
PLAYORDER=
